<mxfile host="app.diagrams.net" agent="Mozilla/5.0 (Windows NT 10.0; Win64; x64) AppleWebKit/537.36 (KHTML, like Gecko) Chrome/138.0.0.0 Safari/537.36" version="28.1.0">
  <diagram name="Page-1" id="pHS7Aqi_xdTV3lNt4fV7">
    <mxGraphModel dx="586" dy="478" grid="1" gridSize="5" guides="1" tooltips="1" connect="1" arrows="1" fold="1" page="1" pageScale="1" pageWidth="1169" pageHeight="827" math="1" shadow="0">
      <root>
        <mxCell id="0" />
        <mxCell id="1" parent="0" />
        <mxCell id="8_8vv9B4CmRi5fIDPLMi-31" style="edgeStyle=orthogonalEdgeStyle;rounded=0;orthogonalLoop=1;jettySize=auto;html=1;exitX=1;exitY=0.5;exitDx=0;exitDy=0;fontFamily=Times New Roman;fontSize=13;endArrow=block;endFill=1;" parent="1" source="8_8vv9B4CmRi5fIDPLMi-1" target="8_8vv9B4CmRi5fIDPLMi-25" edge="1">
          <mxGeometry relative="1" as="geometry" />
        </mxCell>
        <mxCell id="8_8vv9B4CmRi5fIDPLMi-32" style="edgeStyle=orthogonalEdgeStyle;rounded=0;orthogonalLoop=1;jettySize=auto;html=1;fontFamily=Times New Roman;fontSize=13;endArrow=block;endFill=1;" parent="1" source="8_8vv9B4CmRi5fIDPLMi-7" target="8_8vv9B4CmRi5fIDPLMi-25" edge="1">
          <mxGeometry relative="1" as="geometry">
            <Array as="points">
              <mxPoint x="385" y="235" />
              <mxPoint x="385" y="200" />
            </Array>
          </mxGeometry>
        </mxCell>
        <mxCell id="8_8vv9B4CmRi5fIDPLMi-25" value="" style="rounded=1;whiteSpace=wrap;html=1;container=0;fontFamily=Times New Roman;fontSize=13;" parent="1" vertex="1">
          <mxGeometry x="405" y="170" width="85" height="60" as="geometry" />
        </mxCell>
        <mxCell id="8_8vv9B4CmRi5fIDPLMi-26" value="" style="endArrow=none;html=1;rounded=0;fontFamily=Times New Roman;fontSize=13;" parent="1" edge="1">
          <mxGeometry width="50" height="50" relative="1" as="geometry">
            <mxPoint x="425" y="170" as="sourcePoint" />
            <mxPoint x="425" y="230" as="targetPoint" />
          </mxGeometry>
        </mxCell>
        <mxCell id="8_8vv9B4CmRi5fIDPLMi-27" value="" style="endArrow=none;html=1;rounded=0;fontFamily=Times New Roman;fontSize=13;" parent="1" edge="1">
          <mxGeometry width="50" height="50" relative="1" as="geometry">
            <mxPoint x="464.83" y="170" as="sourcePoint" />
            <mxPoint x="464.83" y="230" as="targetPoint" />
          </mxGeometry>
        </mxCell>
        <mxCell id="8_8vv9B4CmRi5fIDPLMi-28" value="$$2,3,4$$" style="text;html=1;align=center;verticalAlign=middle;whiteSpace=wrap;rounded=0;container=0;fontFamily=Times New Roman;fontSize=13;" parent="1" vertex="1">
          <mxGeometry x="424" y="185" width="43" height="30" as="geometry" />
        </mxCell>
        <mxCell id="8_8vv9B4CmRi5fIDPLMi-29" value="$$8$$" style="text;html=1;align=center;verticalAlign=middle;whiteSpace=wrap;rounded=0;container=0;fontFamily=Times New Roman;fontSize=13;" parent="1" vertex="1">
          <mxGeometry x="464" y="185" width="26" height="30" as="geometry" />
        </mxCell>
        <mxCell id="8_8vv9B4CmRi5fIDPLMi-30" value="$$1$$" style="text;html=1;align=center;verticalAlign=middle;whiteSpace=wrap;rounded=0;container=0;fontFamily=Times New Roman;fontSize=13;" parent="1" vertex="1">
          <mxGeometry x="403" y="185" width="26" height="30" as="geometry" />
        </mxCell>
        <mxCell id="8_8vv9B4CmRi5fIDPLMi-33" value="$$Slicer$$" style="text;html=1;align=center;verticalAlign=middle;whiteSpace=wrap;rounded=0;fontFamily=Times New Roman;fontSize=13;" parent="1" vertex="1">
          <mxGeometry x="170" y="145" width="60" height="30" as="geometry" />
        </mxCell>
        <mxCell id="8_8vv9B4CmRi5fIDPLMi-34" value="$$Set$$" style="text;html=1;align=center;verticalAlign=middle;whiteSpace=wrap;rounded=0;fontFamily=Times New Roman;fontSize=13;" parent="1" vertex="1">
          <mxGeometry x="170" y="220" width="60" height="30" as="geometry" />
        </mxCell>
        <mxCell id="8_8vv9B4CmRi5fIDPLMi-35" value="$$Output$$" style="text;html=1;align=center;verticalAlign=middle;whiteSpace=wrap;rounded=0;fontFamily=Times New Roman;fontSize=13;" parent="1" vertex="1">
          <mxGeometry x="500" y="185" width="60" height="30" as="geometry" />
        </mxCell>
        <mxCell id="8_8vv9B4CmRi5fIDPLMi-7" value="" style="rounded=1;whiteSpace=wrap;html=1;container=0;fontFamily=Times New Roman;fontSize=13;" parent="1" vertex="1">
          <mxGeometry x="245" y="205" width="70" height="60" as="geometry" />
        </mxCell>
        <mxCell id="8_8vv9B4CmRi5fIDPLMi-21" value="$$1,2,3,4,8$$" style="text;html=1;align=center;verticalAlign=middle;whiteSpace=wrap;rounded=0;container=0;fontFamily=Times New Roman;fontSize=13;" parent="1" vertex="1">
          <mxGeometry x="247" y="220" width="68" height="30" as="geometry" />
        </mxCell>
        <mxCell id="8_8vv9B4CmRi5fIDPLMi-1" value="" style="rounded=1;whiteSpace=wrap;html=1;container=0;fontFamily=Times New Roman;fontSize=13;" parent="1" vertex="1">
          <mxGeometry x="245" y="130" width="120" height="60" as="geometry" />
        </mxCell>
        <mxCell id="8_8vv9B4CmRi5fIDPLMi-2" value="" style="endArrow=none;html=1;rounded=0;fontFamily=Times New Roman;fontSize=13;" parent="1" edge="1">
          <mxGeometry width="50" height="50" relative="1" as="geometry">
            <mxPoint x="265" y="130" as="sourcePoint" />
            <mxPoint x="265" y="190" as="targetPoint" />
          </mxGeometry>
        </mxCell>
        <mxCell id="8_8vv9B4CmRi5fIDPLMi-4" value="" style="endArrow=none;html=1;rounded=0;fontFamily=Times New Roman;fontSize=13;" parent="1" edge="1">
          <mxGeometry width="50" height="50" relative="1" as="geometry">
            <mxPoint x="304.83" y="130" as="sourcePoint" />
            <mxPoint x="304.83" y="190" as="targetPoint" />
          </mxGeometry>
        </mxCell>
        <mxCell id="8_8vv9B4CmRi5fIDPLMi-13" value="$$2,3,4$$" style="text;html=1;align=center;verticalAlign=middle;whiteSpace=wrap;rounded=0;container=0;fontFamily=Times New Roman;fontSize=13;" parent="1" vertex="1">
          <mxGeometry x="267" y="145" width="38" height="30" as="geometry" />
        </mxCell>
        <mxCell id="8_8vv9B4CmRi5fIDPLMi-19" value="$$5,6,7,8$$" style="text;html=1;align=center;verticalAlign=middle;whiteSpace=wrap;rounded=0;container=0;fontFamily=Times New Roman;fontSize=13;" parent="1" vertex="1">
          <mxGeometry x="306" y="145" width="58" height="30" as="geometry" />
        </mxCell>
        <mxCell id="8_8vv9B4CmRi5fIDPLMi-20" value="$$1$$" style="text;html=1;align=center;verticalAlign=middle;whiteSpace=wrap;rounded=0;container=0;fontFamily=Times New Roman;fontSize=13;" parent="1" vertex="1">
          <mxGeometry x="243" y="145" width="26" height="30" as="geometry" />
        </mxCell>
        <mxCell id="JHZYuuuZdxvZOXPGPHGk-1" value="" style="group;fontFamily=Times New Roman;" vertex="1" connectable="0" parent="1">
          <mxGeometry x="403" y="305" width="120" height="70" as="geometry" />
        </mxCell>
        <mxCell id="JHZYuuuZdxvZOXPGPHGk-2" value="" style="rounded=1;whiteSpace=wrap;html=1;fillColor=#e1d5e7;strokeColor=default;fontSize=13;fontFamily=Times New Roman;fontStyle=1;absoluteArcSize=1;container=0;" vertex="1" parent="JHZYuuuZdxvZOXPGPHGk-1">
          <mxGeometry y="5" width="120" height="60" as="geometry" />
        </mxCell>
        <mxCell id="JHZYuuuZdxvZOXPGPHGk-6" value="" style="verticalLabelPosition=bottom;verticalAlign=top;html=1;shape=mxgraph.basic.rect;fillColor2=none;strokeWidth=1;size=20;indent=5;fillColor=#f8cecc;strokeColor=default;right=1;bottom=1;topLeftStyle=rounded;topRightStyle=rounded;container=0;fontFamily=Times New Roman;rotation=-180;" vertex="1" parent="JHZYuuuZdxvZOXPGPHGk-1">
          <mxGeometry y="45" width="120" height="20" as="geometry" />
        </mxCell>
        <mxCell id="JHZYuuuZdxvZOXPGPHGk-17" value="$$Class \; A$$" style="text;html=1;align=center;verticalAlign=middle;whiteSpace=wrap;rounded=0;fontFamily=Times New Roman;fontSize=12;" vertex="1" parent="JHZYuuuZdxvZOXPGPHGk-1">
          <mxGeometry x="31" y="10" width="58" height="30" as="geometry" />
        </mxCell>
        <mxCell id="JHZYuuuZdxvZOXPGPHGk-19" value="$$Class \; B$$" style="text;html=1;align=center;verticalAlign=middle;whiteSpace=wrap;rounded=0;fontFamily=Times New Roman;fontSize=12;" vertex="1" parent="JHZYuuuZdxvZOXPGPHGk-1">
          <mxGeometry x="31" y="40" width="58" height="30" as="geometry" />
        </mxCell>
        <mxCell id="JHZYuuuZdxvZOXPGPHGk-7" value="" style="group;fontFamily=Times New Roman;rotation=-180;" vertex="1" connectable="0" parent="1">
          <mxGeometry x="403" y="390" width="120" height="65" as="geometry" />
        </mxCell>
        <mxCell id="JHZYuuuZdxvZOXPGPHGk-8" value="" style="rounded=1;whiteSpace=wrap;html=1;fillColor=#e1d5e7;strokeColor=default;fontSize=13;fontFamily=Times New Roman;fontStyle=1;absoluteArcSize=1;container=0;rotation=-180;" vertex="1" parent="JHZYuuuZdxvZOXPGPHGk-7">
          <mxGeometry width="120" height="60" as="geometry" />
        </mxCell>
        <mxCell id="JHZYuuuZdxvZOXPGPHGk-18" value="$$Class \; D$$" style="text;html=1;align=center;verticalAlign=middle;whiteSpace=wrap;rounded=0;fontFamily=Times New Roman;fontSize=12;" vertex="1" parent="JHZYuuuZdxvZOXPGPHGk-7">
          <mxGeometry x="31" y="24" width="58" height="30" as="geometry" />
        </mxCell>
        <mxCell id="JHZYuuuZdxvZOXPGPHGk-9" value="" style="verticalLabelPosition=bottom;verticalAlign=top;html=1;shape=mxgraph.basic.rect;fillColor2=none;strokeWidth=1;size=20;indent=5;fillColor=#f8cecc;strokeColor=default;right=1;bottom=1;topLeftStyle=rounded;topRightStyle=rounded;container=0;fontFamily=Times New Roman;rotation=-360;" vertex="1" parent="JHZYuuuZdxvZOXPGPHGk-7">
          <mxGeometry width="120" height="20" as="geometry" />
        </mxCell>
        <mxCell id="JHZYuuuZdxvZOXPGPHGk-20" value="$$Class \; C$$" style="text;html=1;align=center;verticalAlign=middle;whiteSpace=wrap;rounded=0;fontFamily=Times New Roman;fontSize=12;" vertex="1" parent="JHZYuuuZdxvZOXPGPHGk-7">
          <mxGeometry x="31" y="-5" width="58" height="30" as="geometry" />
        </mxCell>
        <mxCell id="JHZYuuuZdxvZOXPGPHGk-14" style="edgeStyle=orthogonalEdgeStyle;rounded=0;orthogonalLoop=1;jettySize=auto;html=1;endArrow=block;endFill=1;" edge="1" parent="1" source="JHZYuuuZdxvZOXPGPHGk-2" target="JHZYuuuZdxvZOXPGPHGk-11">
          <mxGeometry relative="1" as="geometry" />
        </mxCell>
        <mxCell id="JHZYuuuZdxvZOXPGPHGk-15" style="edgeStyle=orthogonalEdgeStyle;rounded=0;orthogonalLoop=1;jettySize=auto;html=1;endArrow=block;endFill=1;" edge="1" parent="1" source="JHZYuuuZdxvZOXPGPHGk-8" target="JHZYuuuZdxvZOXPGPHGk-11">
          <mxGeometry relative="1" as="geometry" />
        </mxCell>
        <mxCell id="JHZYuuuZdxvZOXPGPHGk-11" value="" style="rounded=1;whiteSpace=wrap;html=1;fillColor=#e1d5e7;strokeColor=default;fontSize=13;fontFamily=Times New Roman;fontStyle=1;absoluteArcSize=1;container=0;" vertex="1" parent="1">
          <mxGeometry x="584" y="350" width="120" height="60" as="geometry" />
        </mxCell>
        <mxCell id="JHZYuuuZdxvZOXPGPHGk-12" value="" style="verticalLabelPosition=bottom;verticalAlign=top;html=1;shape=mxgraph.basic.rect;fillColor2=none;strokeWidth=1;size=20;indent=5;fillColor=#f8cecc;strokeColor=default;right=1;bottom=1;topLeftStyle=rounded;topRightStyle=rounded;container=0;fontFamily=Times New Roman;rotation=-180;labelBackgroundColor=none;fillStyle=auto;" vertex="1" parent="1">
          <mxGeometry x="584" y="390" width="120" height="20" as="geometry" />
        </mxCell>
        <mxCell id="JHZYuuuZdxvZOXPGPHGk-13" value="" style="verticalLabelPosition=bottom;verticalAlign=top;html=1;shape=mxgraph.basic.rect;fillColor2=none;strokeWidth=1;size=20;indent=5;fillColor=#f8cecc;strokeColor=default;right=1;bottom=1;topLeftStyle=rounded;topRightStyle=rounded;container=0;fontFamily=Times New Roman;rotation=-360;gradientColor=none;fillStyle=auto;" vertex="1" parent="1">
          <mxGeometry x="584" y="350" width="120" height="20" as="geometry" />
        </mxCell>
        <mxCell id="JHZYuuuZdxvZOXPGPHGk-21" value="$$Class \; 1$$" style="text;html=1;align=center;verticalAlign=middle;whiteSpace=wrap;rounded=0;fontFamily=Times New Roman;fontSize=12;container=0;" vertex="1" parent="1">
          <mxGeometry x="615" y="345" width="58" height="30" as="geometry" />
        </mxCell>
        <mxCell id="JHZYuuuZdxvZOXPGPHGk-22" value="$$Class \; 2$$" style="text;html=1;align=center;verticalAlign=middle;whiteSpace=wrap;rounded=0;fontFamily=Times New Roman;fontSize=12;container=0;" vertex="1" parent="1">
          <mxGeometry x="615" y="365" width="58" height="30" as="geometry" />
        </mxCell>
        <mxCell id="JHZYuuuZdxvZOXPGPHGk-23" value="$$Class \; 3$$" style="text;html=1;align=center;verticalAlign=middle;whiteSpace=wrap;rounded=0;fontFamily=Times New Roman;fontSize=12;container=0;" vertex="1" parent="1">
          <mxGeometry x="615" y="385" width="58" height="30" as="geometry" />
        </mxCell>
      </root>
    </mxGraphModel>
  </diagram>
</mxfile>
